<svg width="205" height="52" viewBox="0 0 205 52" fill="none" xmlns="http://www.w3.org/2000/svg">
<g clip-path="url(#clip0_658_125)">
<path fill-rule="evenodd" clip-rule="evenodd" d="M34.0453 6.91508C34.7533 5.48996 35.8418 4.29124 37.1889 3.45317C38.536 2.61509 40.0885 2.17075 41.6724 2.16992H44.5542C44.8149 2.16992 45.0649 2.27408 45.2492 2.45947C45.4335 2.64486 45.5371 2.89631 45.5371 3.1585V11.937L56.1836 15.5038C56.3785 15.57 56.5479 15.6961 56.6678 15.8642C56.7877 16.0323 56.8521 16.2341 56.852 16.441V20.2371C56.8499 22.5101 55.9512 24.6895 54.3532 26.2968C52.7552 27.904 50.5884 28.8079 48.3285 28.81H41.7628V28.8179C37.737 27.9598 34.749 25.6782 32.5867 22.9893C31.1141 21.1376 29.9411 19.0638 29.1112 16.8443L34.0453 6.91508ZM24.0828 17.3505H17.7845C14.5809 17.3464 11.4734 16.2492 8.97009 14.2384L3.67435 9.9757C3.52956 9.85942 3.35505 9.78666 3.17092 9.76582C2.9868 9.74498 2.80058 9.77691 2.63372 9.85793C2.46686 9.93895 2.32617 10.0658 2.22787 10.2237C2.12958 10.3817 2.07767 10.5644 2.07815 10.7507V42.998C2.04748 43.8944 2.19653 44.7879 2.51643 45.6251C2.83633 46.4624 3.32052 47.2263 3.94016 47.8713C4.5598 48.5164 5.3022 49.0294 6.12313 49.3797C6.94405 49.7301 7.8267 49.9106 8.71848 49.9106C9.61025 49.9106 10.4929 49.7301 11.3138 49.3797C12.1348 49.0294 12.8772 48.5164 13.4968 47.8713C14.1164 47.2263 14.6006 46.4624 14.9205 45.6251C15.2404 44.7879 15.3895 43.8944 15.3588 42.998V41.1C15.3598 40.356 15.6544 39.6429 16.1778 39.1173C16.7011 38.5916 17.4105 38.2964 18.1502 38.2964H25.6948C26.0613 38.2964 26.4243 38.369 26.763 38.5101C27.1016 38.6512 27.4094 38.858 27.6686 39.1187C27.9278 39.3794 28.1334 39.6889 28.2736 40.0295C28.4139 40.3701 28.4861 40.7352 28.4861 41.1039V43.002C28.4555 43.8984 28.6045 44.7918 28.9244 45.6291C29.2443 46.4663 29.7285 47.2302 30.3481 47.8753C30.9678 48.5203 31.7102 49.0333 32.5311 49.3837C33.352 49.734 34.2347 49.9146 35.1265 49.9146C36.0182 49.9146 36.9009 49.734 37.7218 49.3837C38.5427 49.0333 39.2851 48.5203 39.9048 47.8753C40.5244 47.2302 41.0086 46.4663 41.3285 45.6291C41.6484 44.7918 41.7975 43.8984 41.7668 43.002V33.8399C35.9088 32.8948 31.6628 29.6879 28.7653 26.0974C26.6864 23.493 25.1006 20.5269 24.0868 17.3465L24.0828 17.3505Z" fill="#E08686"/>
<path d="M86.4297 8.51562C86.4297 9.90104 85.9557 11.1589 85.0078 12.2891C84.0599 13.4193 82.8932 14.4401 81.5078 15.3516C80.1589 16.2266 78.737 16.9922 77.2422 17.6484C75.7474 18.3047 74.4531 18.8516 73.3594 19.2891C73.3594 20.0547 73.3411 20.8385 73.3047 21.6406C73.2682 22.4427 73.2135 23.2448 73.1406 24.0469C74.3073 23.4635 75.6198 22.9167 77.0781 22.4062C78.5365 21.8958 79.9219 21.6406 81.2344 21.6406C82.2917 21.6406 83.1484 21.8594 83.8047 22.2969C84.4974 22.7344 84.8438 23.5 84.8438 24.5938C84.8438 25.7969 84.4062 26.8724 83.5312 27.8203C82.6927 28.7682 81.6719 29.6068 80.4688 30.3359C79.2656 31.0651 78.0078 31.6849 76.6953 32.1953C75.3828 32.7057 74.2708 33.1068 73.3594 33.3984C73.3594 34.6016 73.3411 35.8047 73.3047 37.0078C73.2682 38.1745 73.2135 39.3411 73.1406 40.5078C73.1042 41.0911 73.0312 41.8203 72.9219 42.6953C72.849 43.5703 72.6667 44.4271 72.375 45.2656C72.1198 46.0677 71.737 46.7786 71.2266 47.3984C70.7161 47.9818 70.0599 48.2734 69.2578 48.2734C68.4922 48.2734 67.8359 47.9089 67.2891 47.1797C66.7422 46.4141 66.2682 45.4479 65.8672 44.2812C65.5026 43.1146 65.1927 41.8203 64.9375 40.3984C64.7188 38.9401 64.5365 37.5182 64.3906 36.1328C64.2812 34.7474 64.2083 33.4714 64.1719 32.3047C64.1719 31.138 64.1719 30.2448 64.1719 29.625C64.1719 29.151 64.1719 28.4583 64.1719 27.5469C64.2083 26.599 64.2266 25.5599 64.2266 24.4297C64.263 23.2995 64.2995 22.1146 64.3359 20.875C64.4089 19.6354 64.4818 18.4688 64.5547 17.375C64.6276 16.2448 64.7188 15.2604 64.8281 14.4219C64.974 13.5469 65.138 12.9089 65.3203 12.5078C65.7214 11.7057 66.6693 10.9219 68.1641 10.1562C69.6953 9.35417 71.3906 8.66146 73.25 8.07812C75.1094 7.45833 76.9141 6.96615 78.6641 6.60156C80.4505 6.20052 81.8177 6 82.7656 6C83.2031 6 83.6224 6.03646 84.0234 6.10938C84.4609 6.14583 84.862 6.25521 85.2266 6.4375C85.5911 6.61979 85.8828 6.875 86.1016 7.20312C86.3203 7.53125 86.4297 7.96875 86.4297 8.51562ZM116.016 28.8047C116.016 30.2995 115.943 31.849 115.797 33.4531C115.651 35.0208 115.396 36.5521 115.031 38.0469C114.667 39.5417 114.156 40.9635 113.5 42.3125C112.88 43.625 112.078 44.7917 111.094 45.8125C110.109 46.7969 108.924 47.5807 107.539 48.1641C106.154 48.7474 104.531 49.0391 102.672 49.0391C99.9375 49.0391 97.5495 48.401 95.5078 47.125C93.5026 45.849 91.8255 44.2266 90.4766 42.2578C89.1276 40.2526 88.125 38.0286 87.4688 35.5859C86.8125 33.1068 86.4844 30.6641 86.4844 28.2578C86.4844 28.0026 86.4844 27.7656 86.4844 27.5469C86.4844 27.3281 86.5026 27.1276 86.5391 26.9453C86.5755 26.1797 86.6302 25.1406 86.7031 23.8281C86.8125 22.5156 86.9766 21.112 87.1953 19.6172C87.4141 18.1224 87.6875 16.5911 88.0156 15.0234C88.3802 13.4557 88.8359 12.0521 89.3828 10.8125C89.9661 9.57292 90.6589 8.55208 91.4609 7.75C92.263 6.94792 93.2109 6.54688 94.3047 6.54688C95.1068 6.54688 95.7812 6.78385 96.3281 7.25781C96.875 7.73177 97.3125 8.33333 97.6406 9.0625C98.0052 9.75521 98.2604 10.5026 98.4062 11.3047C98.5521 12.0703 98.625 12.7812 98.625 13.4375C98.625 14.4219 98.5156 15.4245 98.2969 16.4453C98.1146 17.4297 97.9323 18.4141 97.75 19.3984C97.4583 20.9661 97.2214 22.5339 97.0391 24.1016C96.8568 25.6693 96.7656 27.2734 96.7656 28.9141C96.7656 29.7526 96.8021 30.7734 96.875 31.9766C96.9844 33.1797 97.2214 34.3464 97.5859 35.4766C97.9505 36.5703 98.4609 37.5182 99.1172 38.3203C99.8099 39.0859 100.74 39.4688 101.906 39.4688C103.036 39.4688 103.93 39.0859 104.586 38.3203C105.279 37.5547 105.789 36.6432 106.117 35.5859C106.445 34.5286 106.646 33.4167 106.719 32.25C106.828 31.0833 106.883 30.0807 106.883 29.2422C106.883 26.8359 106.682 24.4661 106.281 22.1328C105.88 19.763 105.352 17.4115 104.695 15.0781C104.513 14.4583 104.349 13.8385 104.203 13.2188C104.094 12.599 104.039 11.9792 104.039 11.3594C104.039 10.3385 104.331 9.44531 104.914 8.67969C105.534 7.91406 106.391 7.53125 107.484 7.53125C108.396 7.53125 109.234 7.89583 110 8.625C110.802 9.31771 111.513 10.2474 112.133 11.4141C112.753 12.5443 113.281 13.8203 113.719 15.2422C114.193 16.6641 114.594 18.0859 114.922 19.5078C115.25 20.8932 115.487 22.224 115.633 23.5C115.815 24.776 115.924 25.8151 115.961 26.6172C115.997 26.9818 116.016 27.3464 116.016 27.7109C116.016 28.0391 116.016 28.4036 116.016 28.8047ZM146.312 19.2344C146.312 21.75 145.729 24.0104 144.562 26.0156C143.396 28.0208 141.846 29.7891 139.914 31.3203C140.497 32.1953 141.099 33.2161 141.719 34.3828C142.339 35.5495 142.885 36.7891 143.359 38.1016C143.87 39.3776 144.271 40.6719 144.562 41.9844C144.891 43.2604 145.055 44.4453 145.055 45.5391C145.055 46.7057 144.763 47.7448 144.18 48.6562C143.633 49.6042 142.685 50.0781 141.336 50.0781C140.206 50.0781 139.221 49.5312 138.383 48.4375C137.581 47.3438 136.852 46.0495 136.195 44.5547C135.576 43.0234 134.992 41.474 134.445 39.9062C133.935 38.3385 133.443 37.0807 132.969 36.1328C132.312 36.3516 131.674 36.6068 131.055 36.8984C130.435 37.1536 129.797 37.4089 129.141 37.6641C129.104 38.4661 129.031 39.5781 128.922 41C128.849 42.3854 128.648 43.7708 128.32 45.1562C128.029 46.5417 127.573 47.7448 126.953 48.7656C126.333 49.7865 125.477 50.2969 124.383 50.2969C123.18 50.2969 122.25 49.8047 121.594 48.8203C120.938 47.8359 120.464 46.6693 120.172 45.3203C119.917 43.9714 119.771 42.6042 119.734 41.2188C119.698 39.7969 119.68 38.6849 119.68 37.8828C119.68 36.1693 119.716 34.4922 119.789 32.8516C119.862 31.1745 119.898 29.4792 119.898 27.7656C119.898 26.1979 119.862 24.6302 119.789 23.0625C119.753 21.4948 119.734 19.9089 119.734 18.3047C119.734 17.9401 119.734 17.4844 119.734 16.9375C119.734 16.3542 119.753 15.7708 119.789 15.1875C119.862 14.5677 119.935 13.9844 120.008 13.4375C120.081 12.8906 120.208 12.4531 120.391 12.125C120.755 11.3594 121.576 10.6302 122.852 9.9375C124.164 9.24479 125.586 8.64323 127.117 8.13281C128.685 7.58594 130.198 7.16667 131.656 6.875C133.151 6.54688 134.263 6.38281 134.992 6.38281C136.852 6.38281 138.492 6.72917 139.914 7.42188C141.336 8.11458 142.521 9.0625 143.469 10.2656C144.417 11.4323 145.128 12.7995 145.602 14.3672C146.076 15.8984 146.312 17.5208 146.312 19.2344ZM136.195 20C136.195 19.0521 135.977 18.3411 135.539 17.8672C135.102 17.3568 134.391 17.1016 133.406 17.1016C132.677 17.1016 131.93 17.2292 131.164 17.4844C130.435 17.7396 129.76 18.0312 129.141 18.3594C129.286 21.2396 129.341 24.1016 129.305 26.9453C130.07 26.6901 130.854 26.362 131.656 25.9609C132.458 25.5599 133.188 25.0677 133.844 24.4844C134.536 23.901 135.102 23.2448 135.539 22.5156C135.977 21.7865 136.195 20.9479 136.195 20ZM174.914 19.2344C174.914 21.75 174.331 24.0104 173.164 26.0156C171.997 28.0208 170.448 29.7891 168.516 31.3203C169.099 32.1953 169.701 33.2161 170.32 34.3828C170.94 35.5495 171.487 36.7891 171.961 38.1016C172.471 39.3776 172.872 40.6719 173.164 41.9844C173.492 43.2604 173.656 44.4453 173.656 45.5391C173.656 46.7057 173.365 47.7448 172.781 48.6562C172.234 49.6042 171.286 50.0781 169.938 50.0781C168.807 50.0781 167.823 49.5312 166.984 48.4375C166.182 47.3438 165.453 46.0495 164.797 44.5547C164.177 43.0234 163.594 41.474 163.047 39.9062C162.536 38.3385 162.044 37.0807 161.57 36.1328C160.914 36.3516 160.276 36.6068 159.656 36.8984C159.036 37.1536 158.398 37.4089 157.742 37.6641C157.706 38.4661 157.633 39.5781 157.523 41C157.451 42.3854 157.25 43.7708 156.922 45.1562C156.63 46.5417 156.174 47.7448 155.555 48.7656C154.935 49.7865 154.078 50.2969 152.984 50.2969C151.781 50.2969 150.852 49.8047 150.195 48.8203C149.539 47.8359 149.065 46.6693 148.773 45.3203C148.518 43.9714 148.372 42.6042 148.336 41.2188C148.299 39.7969 148.281 38.6849 148.281 37.8828C148.281 36.1693 148.318 34.4922 148.391 32.8516C148.464 31.1745 148.5 29.4792 148.5 27.7656C148.5 26.1979 148.464 24.6302 148.391 23.0625C148.354 21.4948 148.336 19.9089 148.336 18.3047C148.336 17.9401 148.336 17.4844 148.336 16.9375C148.336 16.3542 148.354 15.7708 148.391 15.1875C148.464 14.5677 148.536 13.9844 148.609 13.4375C148.682 12.8906 148.81 12.4531 148.992 12.125C149.357 11.3594 150.177 10.6302 151.453 9.9375C152.766 9.24479 154.188 8.64323 155.719 8.13281C157.286 7.58594 158.799 7.16667 160.258 6.875C161.753 6.54688 162.865 6.38281 163.594 6.38281C165.453 6.38281 167.094 6.72917 168.516 7.42188C169.938 8.11458 171.122 9.0625 172.07 10.2656C173.018 11.4323 173.729 12.7995 174.203 14.3672C174.677 15.8984 174.914 17.5208 174.914 19.2344ZM164.797 20C164.797 19.0521 164.578 18.3411 164.141 17.8672C163.703 17.3568 162.992 17.1016 162.008 17.1016C161.279 17.1016 160.531 17.2292 159.766 17.4844C159.036 17.7396 158.362 18.0312 157.742 18.3594C157.888 21.2396 157.943 24.1016 157.906 26.9453C158.672 26.6901 159.456 26.362 160.258 25.9609C161.06 25.5599 161.789 25.0677 162.445 24.4844C163.138 23.901 163.703 23.2448 164.141 22.5156C164.578 21.7865 164.797 20.9479 164.797 20ZM201.492 10.375C201.492 11.9792 201.273 13.7474 200.836 15.6797C200.435 17.612 199.906 19.5625 199.25 21.5312C198.594 23.5 197.883 25.4141 197.117 27.2734C196.352 29.1328 195.641 30.7734 194.984 32.1953C194.62 32.9974 194.164 34.0182 193.617 35.2578C193.107 36.4609 192.523 37.7552 191.867 39.1406C191.211 40.526 190.5 41.9297 189.734 43.3516C189.005 44.737 188.24 45.9948 187.438 47.125C186.635 48.2188 185.815 49.112 184.977 49.8047C184.138 50.5339 183.299 50.8984 182.461 50.8984C181.294 50.8984 180.456 50.4609 179.945 49.5859C179.471 48.7474 179.234 47.7995 179.234 46.7422C179.234 45.7214 179.398 44.6458 179.727 43.5156C180.091 42.349 180.529 41.2005 181.039 40.0703C181.586 38.9401 182.169 37.8464 182.789 36.7891C183.445 35.7318 184.047 34.7839 184.594 33.9453C183.865 33.763 183.154 33.4349 182.461 32.9609C181.768 32.487 181.258 31.9219 180.93 31.2656C180.346 29.9896 179.745 28.5495 179.125 26.9453C178.505 25.3411 177.94 23.7188 177.43 22.0781C176.956 20.401 176.555 18.7422 176.227 17.1016C175.898 15.4245 175.734 13.8932 175.734 12.5078C175.734 11.8516 175.807 11.1406 175.953 10.375C176.099 9.57292 176.336 8.84375 176.664 8.1875C177.029 7.49479 177.484 6.92969 178.031 6.49219C178.615 6.01823 179.326 5.78125 180.164 5.78125C181.112 5.78125 181.951 6.14583 182.68 6.875C183.409 7.56771 184.047 8.46094 184.594 9.55469C185.177 10.6484 185.669 11.8698 186.07 13.2188C186.471 14.5677 186.818 15.8984 187.109 17.2109C187.401 18.5234 187.638 19.7266 187.82 20.8203C188.003 21.9141 188.167 22.7708 188.312 23.3906C188.458 22.8438 188.695 22.0234 189.023 20.9297C189.388 19.7995 189.807 18.5599 190.281 17.2109C190.792 15.862 191.357 14.4766 191.977 13.0547C192.633 11.6328 193.307 10.3385 194 9.17188C194.729 8.00521 195.495 7.05729 196.297 6.32812C197.099 5.5625 197.919 5.17969 198.758 5.17969C199.305 5.17969 199.76 5.38021 200.125 5.78125C200.49 6.18229 200.763 6.65625 200.945 7.20312C201.164 7.75 201.31 8.3151 201.383 8.89844C201.456 9.48177 201.492 9.97396 201.492 10.375Z" fill="#76ACCD"/>
</g>
<defs>
<clipPath id="clip0_658_125">
<rect width="205" height="52" fill="white"/>
</clipPath>
</defs>
</svg>
